<?xml version="1.0" encoding="UTF-8" standalone="no"?>
<!-- Created with Inkscape (http://www.inkscape.org/) -->

<svg
   xmlns:dc="http://purl.org/dc/elements/1.1/"
   xmlns:cc="http://creativecommons.org/ns#"
   xmlns:rdf="http://www.w3.org/1999/02/22-rdf-syntax-ns#"
   xmlns:svg="http://www.w3.org/2000/svg"
   xmlns="http://www.w3.org/2000/svg"
   xmlns:sodipodi="http://sodipodi.sourceforge.net/DTD/sodipodi-0.dtd"
   xmlns:inkscape="http://www.inkscape.org/namespaces/inkscape"
   width="375.25592"
   height="300"
   id="svg2"
   version="1.1"
   inkscape:version="0.48.4 r9939"
   sodipodi:docname="girl.svg">
  <defs
     id="defs4" />
  <sodipodi:namedview
     id="base"
     pagecolor="#ffffff"
     bordercolor="#666666"
     borderopacity="1.0"
     inkscape:pageopacity="0.0"
     inkscape:pageshadow="2"
     inkscape:zoom="1.4"
     inkscape:cx="287.91256"
     inkscape:cy="170.71454"
     inkscape:document-units="px"
     inkscape:current-layer="layer1"
     showgrid="true"
     showborder="false"
     inkscape:showpageshadow="false"
     fit-margin-top="0"
     fit-margin-left="0"
     fit-margin-right="0"
     fit-margin-bottom="0"
     inkscape:window-width="1280"
     inkscape:window-height="972"
     inkscape:window-x="-8"
     inkscape:window-y="-8"
     inkscape:window-maximized="1">
    <inkscape:grid
       type="xygrid"
       id="grid2987"
       empspacing="5"
       visible="true"
       enabled="true"
       snapvisiblegridlinesonly="true"
       originx="256.52895px"
       originy="-114.34269px" />
  </sodipodi:namedview>
  <metadata
     id="metadata7">
    <rdf:RDF>
      <cc:Work
         rdf:about="">
        <dc:format>image/svg+xml</dc:format>
        <dc:type
           rdf:resource="http://purl.org/dc/dcmitype/StillImage" />
        <dc:title />
      </cc:Work>
    </rdf:RDF>
  </metadata>
  <g
     inkscape:label="Layer 1"
     inkscape:groupmode="layer"
     id="layer1"
     transform="translate(256.52896,-638.01952)">
    <g
       id="g3061"
       transform="matrix(0.36816928,0,0,0.36816928,-104.00387,1047.1723)">
      <path
         sodipodi:nodetypes="aasccaaaaa"
         inkscape:connector-curvature="0"
         id="path3013"
         d="m -10.576865,875.29112 c -22.519573,24.57539 -31.599867,61.37511 -32.106963,94.70413 -0.316378,20.79408 7.850052,41.64445 18.224799,59.66825 6.426641,11.1649 23.0768651,20.4692 23.0768651,20.4692 l 132.4535939,-0.2706 c 0,0 21.20031,-7.5249 27.5,-16.0713 12.47365,-16.9221 15.47389,-40.4396 14.28571,-61.42862 -1.96317,-34.67897 -11.12958,-72.86259 -34.90718,-98.18275 -18.35951,-19.55057 -47.149439,-31.78891 -73.968822,-31.6588 -27.147017,0.1317 -56.2173624,12.75553 -74.558003,32.77049 z"
         style="fill:#4d4d4d;fill-opacity:1;fill-rule:nonzero;stroke:none" />
      <path
         sodipodi:nodetypes="cacaaaccac"
         inkscape:connector-curvature="0"
         id="path2985"
         d="m 0,1007.3622 c 3.5240444,10.0732 11.476137,18.5787 20,25 13.616641,10.2578 47.201884,19.6901 47.201884,19.6901 0,0 33.947356,-9.439 47.798116,-19.6901 8.773,-6.493 17.47003,-14.9074 20.77332,-25.3099 8.06056,-25.38392 1.27878,-54.00775 -5.77332,-79.69012 -4.93404,-17.96879 -25,-50 -25,-50 l -75,0 c 0,0 -20.1549881,32.007 -25,50 -6.9471468,25.79974 -12.0878123,58.04938 -5,80.00002 z"
         style="fill:#e6e6e6;fill-opacity:1;fill-rule:nonzero;stroke:none" />
      <path
         sodipodi:nodetypes="aaaaaaaa"
         inkscape:connector-curvature="0"
         id="path2989"
         d="m 14.948909,961.57936 c -1.771334,5.08108 5.542616,9.56202 9.818994,11.66667 3.023856,1.48821 6.795138,1.48821 9.818994,0 4.276378,-2.10465 11.590328,-6.58559 9.818994,-11.66667 -0.626261,-1.79643 -3.316776,-0.44674 -4.909497,0 -3.561433,0.99895 -6.15967,5.83334 -9.818994,5.83334 -3.659324,0 -6.257561,-4.83439 -9.818994,-5.83334 -1.592721,-0.44674 -4.283236,-1.79643 -4.909497,0 z"
         style="fill:#4d4d4d;fill-opacity:1;fill-rule:nonzero;stroke:none" />
      <path
         sodipodi:nodetypes="aaaaaaaa"
         inkscape:connector-curvature="0"
         id="path2989-1"
         d="m 86.549509,961.57936 c -1.771334,5.08108 5.542614,9.56202 9.818992,11.66667 3.023856,1.48821 6.795139,1.48821 9.818989,0 4.27638,-2.10465 11.59033,-6.58559 9.819,-11.66667 -0.62626,-1.79643 -3.31678,-0.44674 -4.9095,0 -3.56144,0.99895 -6.15968,5.83334 -9.819,5.83334 -3.659319,0 -6.257553,-4.83439 -9.818985,-5.83334 -1.59272,-0.44674 -4.283235,-1.79643 -4.909496,0 z"
         style="fill:#4d4d4d;fill-opacity:1;fill-rule:nonzero;stroke:none" />
      <path
         sodipodi:nodetypes="aaaaaaaa"
         inkscape:connector-curvature="0"
         id="path3009"
         d="m 52.642193,1017.3495 c 0.596964,-3.6787 6.287215,-5.3227 10,-5 2.065527,0.1795 2.926687,3.6997 5,3.6997 2.073313,0 2.934473,-3.5202 5,-3.6997 3.712785,-0.3227 9.403036,1.3213 10,5 0.755106,4.6532 -5.64479,8.196 -10,10 -3.079598,1.2756 -6.920402,1.2756 -10,0 -4.35521,-1.804 -10.755106,-5.3468 -10,-10 z"
         style="fill:#4d4d4d;fill-opacity:1;fill-rule:nonzero;stroke:none" />
      <path
         sodipodi:nodetypes="csscccccc"
         inkscape:connector-curvature="0"
         id="path3011"
         d="m -9.6428571,962.00504 c 0,0 25.8834621,-22.5507 39.6428571,-26.78571 22.300897,-6.864 47.754836,-7.04252 70,0 14.98831,4.7451 39.64286,23.57142 39.64286,23.57142 l -5.35715,-63.57142 -31.42857,-30 -75.714283,-2.85715 -35.7142856,44.28572 z"
         style="fill:#4d4d4d;fill-opacity:1;fill-rule:nonzero;stroke:none" />
      <path
         sodipodi:nodetypes="asssaassscca"
         inkscape:connector-curvature="0"
         id="path3019"
         d="M 50,1058.341 C 8.5024933,1074.9837 -23.967987,1037.1367 -68.586297,995.66334 -113.62179,953.80212 -150.2555,850.46611 -160,858.34099 c -18.98934,15.34596 24.68328,112.07191 58.83756,155.85791 61.634077,79.0152 79.651511,60.8792 97.2233553,105.3045 14.3051867,36.1666 4.54981358,77.9531 0.9086271,116.6752 -13.1691544,140.047 -115.3755024,298.605 -81.8941454,413.9718 19.799888,68.2245 89.8660453,-370.0088 165.736807,-372.5556 77.284086,-2.5942 -34.673128,153.3895 -30.336428,29.6477 5.02015,-143.2431 13.665706,-50.3489 18.118174,-76.0131 C 82.791153,1156.8299 76.344633,1032.7701 55,1043.341 c -4.275622,3.0817 -0.108276,13.0382 -5,15 z"
         style="fill:#e6e6e6;fill-opacity:1;fill-rule:nonzero;stroke:none" />
      <path
         sodipodi:nodetypes="asssaassscca"
         inkscape:connector-curvature="0"
         id="path3019-4"
         d="m 86.025737,1058.341 c 41.382553,16.9265 73.967993,-21.2043 118.586303,-62.67765 45.03549,-41.86123 81.6692,-145.19724 91.4137,-137.32236 18.98934,15.34596 -24.68328,112.07192 -58.83756,155.85791 -61.63407,79.0152 -79.65151,60.8792 -97.22335,105.3045 -14.30519,36.1666 -4.54982,77.9531 -0.90863,116.6752 13.16915,140.047 115.3755,298.605 81.89414,413.9718 -19.79989,68.2245 -89.86604,-370.0088 -165.736803,-372.5556 -77.28409,-2.5942 34.67313,153.3895 30.33643,29.6477 -5.02015,-143.2431 -13.66571,-50.3489 -18.11818,-76.0131 -14.1972,-74.3995 -16.679251,-207.0307 13.59395,-188.6027 4.27562,3.0817 -0.08772,13.6333 5,15.7143 z"
         style="fill:#e6e6e6;fill-opacity:1;fill-rule:nonzero;stroke:none" />
      <path
         sodipodi:nodetypes="csscssccssccssc"
         inkscape:connector-curvature="0"
         id="path3021"
         d="m -112.12693,1270.5551 c 0,0 55.817794,74.1212 96.974642,89.9036 61.942856,23.7532 138.043858,23.1512 199.000048,-3.0304 40.69344,-17.4785 92.93404,-94.9544 92.93404,-94.9544 0,0 -95.87267,-5.9483 -123.49115,-39.1434 -23.05904,-27.7151 -4.289,-72.4415 -13.38452,-107.3287 -5.02023,-19.2558 -22.4759,-55.3059 -22.4759,-55.3059 l -25.758887,-1.5151 c 0,0 22.334067,44.9104 9.091377,60.3565 -14.410078,16.8077 -51.806716,16.8861 -66.417534,0.2526 -13.395894,-15.2504 8.081221,-60.3566 8.081221,-60.3566 l -24.748737,2.7779 c 0,0 -16.92389669,34.9992 -21.1675697,53.7965 -7.8226933,34.6505 12.6221202,76.9494 -7.3692403,106.3127 -21.041995,30.9064 -101.26779,48.2347 -101.26779,48.2347 z"
         style="fill:#4d4d4d;fill-opacity:1;fill-rule:nonzero;stroke:none" />
    </g>
    <g
       id="g3329">
      <g
         id="g3044">
        <path
           sodipodi:type="arc"
           style="fill:#333333;fill-opacity:1;fill-rule:nonzero;stroke:none"
           id="path3349"
           sodipodi:cx="27.10717"
           sodipodi:cy="-722.49994"
           sodipodi:rx="62.5"
           sodipodi:ry="62.5"
           d="m 89.60717,-722.49994 a 62.5,62.5 0 1 1 -125,0 62.5,62.5 0 1 1 125,0 z"
           transform="matrix(1.008924,0,0,1.008924,-203.69153,1430.0248)" />
        <rect
           style="fill:#333333;fill-opacity:1;fill-rule:nonzero;stroke:none"
           id="rect3345"
           width="126.11442"
           height="142.92967"
           x="-239.38039"
           y="668.42279"
           rx="25.700001"
           ry="49.5" />
        <path
           sodipodi:type="arc"
           style="fill:#e6e6e6;fill-opacity:1;fill-rule:nonzero;stroke:none"
           id="path3072"
           sodipodi:cx="-2.0203052"
           sodipodi:cy="-677.82764"
           sodipodi:rx="55.558392"
           sodipodi:ry="55.558392"
           d="m 53.538086,-677.82764 a 55.558392,55.558392 0 1 1 -111.116783,0 55.558392,55.558392 0 1 1 111.116783,0 z"
           transform="matrix(0.84076277,0,0,0.84076277,-173.54805,1293.1351)" />
        <rect
           style="fill:#333333;fill-opacity:1;fill-rule:nonzero;stroke:none"
           id="rect3076"
           width="103.61443"
           height="40.766338"
           x="-227.90317"
           y="675.68207" />
        <path
           sodipodi:type="arc"
           style="fill:#333333;fill-opacity:1;fill-rule:nonzero;stroke:none"
           id="path3078"
           sodipodi:cx="-27.5"
           sodipodi:cy="-666.42859"
           sodipodi:rx="5.3571429"
           sodipodi:ry="5.3571429"
           d="m -22.142857,-666.42859 a 5.3571429,5.3571429 0 1 1 -10.714286,0 5.3571429,5.3571429 0 1 1 10.714286,0 z"
           transform="matrix(0.84076277,0,0,0.84076277,-177.79455,1291.4879)" />
        <path
           transform="matrix(0.84076277,0,0,0.84076277,-127.3186,1291.5941)"
           sodipodi:type="arc"
           style="fill:#333333;fill-opacity:1;fill-rule:nonzero;stroke:none"
           id="path3078-0"
           sodipodi:cx="-27.5"
           sodipodi:cy="-666.42859"
           sodipodi:rx="5.3571429"
           sodipodi:ry="5.3571429"
           d="m -22.142857,-666.42859 a 5.3571429,5.3571429 0 1 1 -10.714286,0 5.3571429,5.3571429 0 1 1 10.714286,0 z" />
        <rect
           style="fill:#e6e6e6;fill-opacity:1;fill-rule:nonzero;stroke:none"
           id="rect3172"
           width="67.557632"
           height="76.569466"
           x="-209.65398"
           y="773.13611"
           ry="25.700001"
           rx="25.700001" />
        <rect
           style="fill:#e6e6e6;fill-opacity:1;fill-rule:nonzero;stroke:none"
           id="rect3176-2-7"
           width="20.259632"
           height="71.466064"
           x="-741.7002"
           y="280.60141"
           rx="25.699894"
           ry="9.199749"
           transform="matrix(0.64057833,-0.76789284,0.76493894,0.6441028,0,0)" />
        <rect
           style="fill:#e6e6e6;fill-opacity:1;fill-rule:nonzero;stroke:none"
           id="rect3176-2"
           width="20.259632"
           height="71.466064"
           x="-514.81116"
           y="551.86151"
           rx="25.699894"
           ry="9.199749"
           transform="matrix(-0.64057833,-0.76789284,-0.76493894,0.6441028,0,0)" />
        <rect
           style="fill:#f9f9f9;fill-opacity:1;fill-rule:nonzero;stroke:none"
           id="rect3252"
           width="73.631836"
           height="44.905392"
           x="-212.68678"
           y="772.58234"
           rx="25.699886"
           ry="12.9" />
        <rect
           style="fill:#333333;fill-opacity:1;fill-rule:nonzero;stroke:none"
           id="rect3301"
           width="21.01907"
           height="25.222883"
           x="-210.52406"
           y="912.32928"
           rx="25.699877"
           ry="9.1997471" />
        <rect
           style="fill:#e6e6e6;fill-opacity:1;fill-rule:nonzero;stroke:none"
           id="rect3176-4"
           width="20.259682"
           height="104.71192"
           x="-208.17807"
           y="823.47101"
           rx="25.699879"
           ry="9.1997452"
           transform="matrix(0.99999549,-0.00300359,-0.0017395,0.99999849,0,0)" />
        <rect
           style="fill:#333333;fill-opacity:1;fill-rule:nonzero;stroke:none"
           id="rect3301-1"
           width="21.01907"
           height="25.222883"
           x="-162.75101"
           y="912.79663"
           rx="25.699877"
           ry="9.1997471" />
        <rect
           style="fill:#e6e6e6;fill-opacity:1;fill-rule:nonzero;stroke:none"
           id="rect3176-4-5"
           width="20.259682"
           height="104.7741"
           x="-160.88503"
           y="823.91315"
           rx="25.699877"
           ry="9.1997471"
           transform="matrix(0.99999548,-0.00300537,-0.00173846,0.99999849,0,0)" />
        <rect
           style="fill:#666666;fill-opacity:1;fill-rule:nonzero;stroke:none"
           id="rect3250"
           width="72.696098"
           height="75.668648"
           x="-877.85785"
           y="-213.92439"
           rx="25.699886"
           ry="2.3"
           transform="matrix(0,-1,1,0,0,0)" />
        <rect
           style="fill:#e6e6e6;fill-opacity:1;fill-rule:nonzero;stroke:none"
           id="rect3174"
           width="18.618992"
           height="21.349834"
           x="-185.14349"
           y="761.54907"
           rx="25.700001"
           ry="6.0999999" />
        <rect
           style="fill:#666666;fill-opacity:1;fill-rule:nonzero;stroke:none"
           id="rect3254"
           width="12.611442"
           height="42.038139"
           x="-198.80138"
           y="770.75677"
           rx="25.699886"
           ry="3" />
        <rect
           style="fill:#666666;fill-opacity:1;fill-rule:nonzero;stroke:none"
           id="rect3254-7"
           width="12.611442"
           height="42.038139"
           x="-165.4664"
           y="770.50177"
           rx="25.699886"
           ry="3" />
        <path
           sodipodi:type="arc"
           style="fill:#ffffff;fill-opacity:1;fill-rule:nonzero;stroke:none"
           id="path3281"
           sodipodi:cx="-15.39283"
           sodipodi:cy="-564.99994"
           sodipodi:rx="5"
           sodipodi:ry="5"
           d="m -10.39283,-564.99994 a 5,5 0 1 1 -10,0 5,5 0 1 1 10,0 z"
           transform="matrix(0.84076277,0,0,0.84076277,-179.91779,1288.0392)" />
        <path
           sodipodi:type="arc"
           style="fill:#ffffff;fill-opacity:1;fill-rule:nonzero;stroke:none"
           id="path3281-1"
           sodipodi:cx="-15.39283"
           sodipodi:cy="-564.99994"
           sodipodi:rx="5"
           sodipodi:ry="5"
           d="m -10.39283,-564.99994 a 5,5 0 1 1 -10,0 5,5 0 1 1 10,0 z"
           transform="matrix(0.84076277,0,0,0.84076277,-146.11656,1288.1225)" />
        <rect
           style="fill:#333333;fill-opacity:1;fill-rule:nonzero;stroke:none"
           id="rect3343"
           width="12.611442"
           height="8.4076281"
           x="-182.32864"
           y="752.49896"
           rx="25.700001"
           ry="1.2" />
        <path
           sodipodi:type="arc"
           style="fill:#b3b3b3;fill-opacity:1;fill-rule:nonzero;stroke:none"
           id="path3395"
           sodipodi:cx="48.392857"
           sodipodi:cy="106.51786"
           sodipodi:rx="7.6785712"
           sodipodi:ry="3.8392856"
           d="m 56.071428,106.51786 a 7.6785712,3.8392856 0 1 1 -15.357143,0 7.6785712,3.8392856 0 1 1 15.357143,0 z"
           transform="translate(-245.5802,637.66238)" />
        <path
           transform="translate(-203.61591,637.66238)"
           sodipodi:type="arc"
           style="fill:#b3b3b3;fill-opacity:1;fill-rule:nonzero;stroke:none"
           id="path3395-2"
           sodipodi:cx="48.392857"
           sodipodi:cy="106.51786"
           sodipodi:rx="7.6785712"
           sodipodi:ry="3.8392856"
           d="m 56.071428,106.51786 a 7.6785712,3.8392856 0 1 1 -15.357143,0 7.6785712,3.8392856 0 1 1 15.357143,0 z" />
        <path
           sodipodi:type="arc"
           style="fill:#e6e6e6;fill-opacity:1;fill-rule:nonzero;stroke:none"
           id="path3433"
           sodipodi:cx="38.392857"
           sodipodi:cy="61.42857"
           sodipodi:rx="7.6785712"
           sodipodi:ry="8.5714283"
           d="m 46.071428,61.42857 a 7.6785712,8.5714283 0 1 1 -15.357143,0 7.6785712,8.5714283 0 1 1 15.357143,0 z"
           transform="matrix(1,0,0,0.87499999,-257.72305,688.76953)" />
        <path
           sodipodi:type="arc"
           style="fill:#e6e6e6;fill-opacity:1;fill-rule:nonzero;stroke:none"
           id="path3433-6"
           sodipodi:cx="38.392857"
           sodipodi:cy="61.42857"
           sodipodi:rx="7.6785712"
           sodipodi:ry="8.5714283"
           d="m 46.071428,61.42857 a 7.6785712,8.5714283 0 1 1 -15.357143,0 7.6785712,8.5714283 0 1 1 15.357143,0 z"
           transform="matrix(1,0,0,0.87499999,-170.39792,688.76953)" />
      </g>
      <g
         transform="matrix(1.0015918,0,0,1,0.05774102,0)"
         id="g3193">
        <path
           sodipodi:type="arc"
           style="fill:#333333;fill-opacity:1;fill-rule:nonzero;stroke:none"
           id="path3349-7"
           sodipodi:cx="27.10717"
           sodipodi:cy="-722.49994"
           sodipodi:rx="62.5"
           sodipodi:ry="62.5"
           d="m 89.60717,-722.49994 a 62.5,62.5 0 1 1 -125,0 62.5,62.5 0 1 1 125,0 z"
           transform="matrix(1.008924,0,0,1.008924,11.55647,1430.0248)" />
        <rect
           style="fill:#333333;fill-opacity:1;fill-rule:nonzero;stroke:none"
           id="rect3345-4"
           width="126.11442"
           height="142.92967"
           x="-24.132387"
           y="668.42279"
           rx="25.659157"
           ry="49.5" />
        <path
           sodipodi:type="arc"
           style="fill:#e6e6e6;fill-opacity:1;fill-rule:nonzero;stroke:none"
           id="path3072-0"
           sodipodi:cx="-2.0203052"
           sodipodi:cy="-677.82764"
           sodipodi:rx="55.558392"
           sodipodi:ry="55.558392"
           d="m 53.538086,-677.82764 a 55.558392,55.558392 0 1 1 -111.116783,0 55.558392,55.558392 0 1 1 111.116783,0 z"
           transform="matrix(0.84076277,0,0,0.84076277,41.69995,1293.1351)" />
        <rect
           style="fill:#333333;fill-opacity:1;fill-rule:nonzero;stroke:none"
           id="rect3076-9"
           width="103.61443"
           height="40.766338"
           x="-12.655168"
           y="675.68207" />
        <path
           sodipodi:type="arc"
           style="fill:#333333;fill-opacity:1;fill-rule:nonzero;stroke:none"
           id="path3078-4"
           sodipodi:cx="-27.5"
           sodipodi:cy="-666.42859"
           sodipodi:rx="5.3571429"
           sodipodi:ry="5.3571429"
           d="m -22.142857,-666.42859 a 5.3571429,5.3571429 0 1 1 -10.714286,0 5.3571429,5.3571429 0 1 1 10.714286,0 z"
           transform="matrix(0.84076277,0,0,0.84076277,37.45345,1291.4879)" />
        <path
           transform="matrix(0.84076277,0,0,0.84076277,87.9294,1291.5941)"
           sodipodi:type="arc"
           style="fill:#333333;fill-opacity:1;fill-rule:nonzero;stroke:none"
           id="path3078-0-8"
           sodipodi:cx="-27.5"
           sodipodi:cy="-666.42859"
           sodipodi:rx="5.3571429"
           sodipodi:ry="5.3571429"
           d="m -22.142857,-666.42859 a 5.3571429,5.3571429 0 1 1 -10.714286,0 5.3571429,5.3571429 0 1 1 10.714286,0 z" />
        <rect
           style="fill:#e6e6e6;fill-opacity:1;fill-rule:nonzero;stroke:none"
           id="rect3172-8"
           width="67.557632"
           height="76.569466"
           x="5.5940237"
           y="773.13611"
           ry="25.700001"
           rx="25.659157" />
        <rect
           style="fill:#e6e6e6;fill-opacity:1;fill-rule:nonzero;stroke:none"
           id="rect3176-2-7-2"
           width="20.259632"
           height="71.466064"
           x="-568.19891"
           y="547.43573"
           rx="25.683111"
           ry="9.191186"
           transform="matrix(0.64057833,-0.76789284,0.76493894,0.6441028,0,0)" />
        <rect
           style="fill:#e6e6e6;fill-opacity:1;fill-rule:nonzero;stroke:none"
           id="rect3176-2-4"
           width="20.259632"
           height="71.466064"
           x="-620.17218"
           y="483.49448"
           rx="25.683111"
           ry="9.191186"
           transform="matrix(-0.64057833,-0.76789284,-0.76493894,0.6441028,0,0)" />
        <rect
           style="fill:#f9f9f9;fill-opacity:1;fill-rule:nonzero;stroke:none"
           id="rect3252-5"
           width="73.631836"
           height="44.905392"
           x="2.5612171"
           y="772.58234"
           rx="25.659042"
           ry="12.9" />
        <rect
           style="fill:#333333;fill-opacity:1;fill-rule:nonzero;stroke:none"
           id="rect3301-5"
           width="21.01907"
           height="25.222883"
           x="4.723937"
           y="912.32928"
           rx="25.659033"
           ry="9.1997471" />
        <rect
           style="fill:#e6e6e6;fill-opacity:1;fill-rule:nonzero;stroke:none"
           id="rect3176-4-1"
           width="20.259682"
           height="104.71192"
           x="7.0720253"
           y="824.11755"
           rx="25.659037"
           ry="9.1997452"
           transform="matrix(0.99999549,-0.00300359,-0.0017395,0.99999849,0,0)" />
        <rect
           style="fill:#333333;fill-opacity:1;fill-rule:nonzero;stroke:none"
           id="rect3301-1-7"
           width="21.01907"
           height="25.222883"
           x="52.496994"
           y="912.79663"
           rx="25.659033"
           ry="9.1997471" />
        <rect
           style="fill:#e6e6e6;fill-opacity:1;fill-rule:nonzero;stroke:none"
           id="rect3176-4-5-1"
           width="20.259682"
           height="104.7741"
           x="54.365074"
           y="824.56006"
           rx="25.659035"
           ry="9.1997471"
           transform="matrix(0.99999548,-0.00300537,-0.00173846,0.99999849,0,0)" />
        <rect
           style="fill:#666666;fill-opacity:1;fill-rule:nonzero;stroke:none"
           id="rect3250-1"
           width="72.696098"
           height="75.668648"
           x="-877.85785"
           y="1.3236073"
           rx="25.699886"
           ry="2.2963448"
           transform="matrix(0,-1,1,0,0,0)" />
        <rect
           style="fill:#e6e6e6;fill-opacity:1;fill-rule:nonzero;stroke:none"
           id="rect3174-5"
           width="18.618992"
           height="21.349834"
           x="30.104506"
           y="761.54907"
           rx="25.659157"
           ry="6.0999999" />
        <rect
           style="fill:#666666;fill-opacity:1;fill-rule:nonzero;stroke:none"
           id="rect3254-2"
           width="12.611442"
           height="42.038139"
           x="16.446623"
           y="770.75677"
           rx="25.659042"
           ry="3" />
        <rect
           style="fill:#666666;fill-opacity:1;fill-rule:nonzero;stroke:none"
           id="rect3254-7-7"
           width="12.611442"
           height="42.038139"
           x="49.781601"
           y="770.50177"
           rx="25.659042"
           ry="3" />
        <path
           sodipodi:type="arc"
           style="fill:#ffffff;fill-opacity:1;fill-rule:nonzero;stroke:none"
           id="path3281-6"
           sodipodi:cx="-15.39283"
           sodipodi:cy="-564.99994"
           sodipodi:rx="5"
           sodipodi:ry="5"
           d="m -10.39283,-564.99994 a 5,5 0 1 1 -10,0 5,5 0 1 1 10,0 z"
           transform="matrix(0.84076277,0,0,0.84076277,35.33021,1288.0392)" />
        <path
           sodipodi:type="arc"
           style="fill:#ffffff;fill-opacity:1;fill-rule:nonzero;stroke:none"
           id="path3281-1-1"
           sodipodi:cx="-15.39283"
           sodipodi:cy="-564.99994"
           sodipodi:rx="5"
           sodipodi:ry="5"
           d="m -10.39283,-564.99994 a 5,5 0 1 1 -10,0 5,5 0 1 1 10,0 z"
           transform="matrix(0.84076277,0,0,0.84076277,69.13144,1288.1225)" />
        <rect
           style="fill:#333333;fill-opacity:1;fill-rule:nonzero;stroke:none"
           id="rect3343-4"
           width="12.611442"
           height="3.3568654"
           x="32.919357"
           y="757.54974"
           rx="25.659157"
           ry="1.2" />
        <path
           sodipodi:type="arc"
           style="fill:#b3b3b3;fill-opacity:1;fill-rule:nonzero;stroke:none"
           id="path3395-23"
           sodipodi:cx="48.392857"
           sodipodi:cy="106.51786"
           sodipodi:rx="7.6785712"
           sodipodi:ry="3.8392856"
           d="m 56.071428,106.51786 a 7.6785712,3.8392856 0 1 1 -15.357143,0 7.6785712,3.8392856 0 1 1 15.357143,0 z"
           transform="translate(-30.3322,637.66239)" />
        <path
           transform="translate(11.63209,637.66239)"
           sodipodi:type="arc"
           style="fill:#b3b3b3;fill-opacity:1;fill-rule:nonzero;stroke:none"
           id="path3395-2-2"
           sodipodi:cx="48.392857"
           sodipodi:cy="106.51786"
           sodipodi:rx="7.6785712"
           sodipodi:ry="3.8392856"
           d="m 56.071428,106.51786 a 7.6785712,3.8392856 0 1 1 -15.357143,0 7.6785712,3.8392856 0 1 1 15.357143,0 z" />
        <path
           sodipodi:type="arc"
           style="fill:#e6e6e6;fill-opacity:1;fill-rule:nonzero;stroke:none"
           id="path3433-2"
           sodipodi:cx="38.392857"
           sodipodi:cy="61.42857"
           sodipodi:rx="7.6785712"
           sodipodi:ry="8.5714283"
           d="m 46.071428,61.42857 a 7.6785712,8.5714283 0 1 1 -15.357143,0 7.6785712,8.5714283 0 1 1 15.357143,0 z"
           transform="matrix(1,0,0,0.87499999,-42.47505,688.76954)" />
        <path
           sodipodi:type="arc"
           style="fill:#e6e6e6;fill-opacity:1;fill-rule:nonzero;stroke:none"
           id="path3433-6-1"
           sodipodi:cx="38.392857"
           sodipodi:cy="61.42857"
           sodipodi:rx="7.6785712"
           sodipodi:ry="8.5714283"
           d="m 46.071428,61.42857 a 7.6785712,8.5714283 0 1 1 -15.357143,0 7.6785712,8.5714283 0 1 1 15.357143,0 z"
           transform="matrix(1,0,0,0.87499999,44.85008,688.76954)" />
        <path
           sodipodi:type="arc"
           style="fill:#e6e6e6;fill-opacity:1;fill-rule:nonzero;stroke:none"
           id="path3191"
           sodipodi:cx="252.02895"
           sodipodi:cy="129.84267"
           sodipodi:rx="6.5"
           sodipodi:ry="6.5"
           d="m 258.52895,129.84267 a 6.5,6.5 0 1 1 -13,0 6.5,6.5 0 1 1 13,0 z"
           transform="matrix(1.5700549,0,0,1,-356.2261,622.84094)" />
      </g>
    </g>
  </g>
</svg>
